<svg version="1.1" xmlns="http://www.w3.org/2000/svg" viewBox="0 0 76 76" style="enable-background:new 0 0 76 76;" xml:space="preserve">
  <defs>
    <linearGradient id="grad" x1="0%" y1="0%" x2="100%" y2="100%">
      <stop offset="0%" stop-color="green" />
      <stop offset="35%" stop-color="green" />
      <stop offset="65%" stop-color="red" />
      <stop offset="100%" stop-color="red" />
    </linearGradient>
  </defs>
<g>
  <rect fill="url(#grad)" x="2" y="17" width="50" height="41"/>
  <path d="M72.9,14.4L56,25.3V22c0-4.4-3.6-8-8-8H8c-4.4,0-8,3.6-8,8v32c0,4.4,3.6,8,8,8h40c4.4,0,8-3.6,8-8v-3.3
    l16.9,10.9c1.9,1,3.1-0.7,3.1-1.7V16C76,15,74.9,13.2,72.9,14.4z M52,54c0,2.2-1.8,4-4,4H8c-2.2,0-4-1.8-4-4V22c0-2.2,1.8-4,4-4h40
    c2.2,0,4,1.8,4,4V54z M72,56.3L56,46V30l16-10.3V56.3z"/>
</g>
</svg>
